<svg xmlns="http://www.w3.org/2000/svg" viewBox="0 0 64 64" width="16" height="16">
  <defs>
    <linearGradient id="leafFill" x1="0" y1="0" x2="1" y2="1">
      <stop offset="0%" stop-color="#99d34f"/>
      <stop offset="100%" stop-color="#72b238"/>
    </linearGradient>
  </defs>
  <path
    d="M35 6
       C35 12, 37 16, 43 22
       C49 28, 53 34, 53 42
       C53 51, 47 57, 39 57
       C34 57, 30 54, 27.5 50.5
       C25 54.5, 20.5 57, 15.5 57
       C7.5 57, 2 51.5, 2 43
       C2 31, 13 23.5, 22 17.5
       C28 13.5, 31.5 10, 35 6 Z"
    fill="url(#leafFill)"
    stroke="#2d511d"
    stroke-width="3"
    stroke-linejoin="round"
  />
  <path d="M34 8 C31 21, 28.5 31, 28 49" fill="none" stroke="#2d511d" stroke-width="3" stroke-linecap="round" opacity="0.9"/>
</svg>
