<svg xmlns="http://www.w3.org/2000/svg" viewBox="0 0 64 64" width="64" height="64" role="img" aria-label="Leaf icon">
  <defs>
    <linearGradient id="leafFill" x1="0" y1="0" x2="1" y2="1">
      <stop offset="0%" stop-color="#99d34f"/>
      <stop offset="100%" stop-color="#72b238"/>
    </linearGradient>
    <filter id="shadow" x="-20%" y="-20%" width="140%" height="140%">
      <feDropShadow dx="1.2" dy="1.8" stdDeviation="1.2" flood-color="#29491a" flood-opacity="0.45"/>
    </filter>
  </defs>

  <g filter="url(#shadow)">
    <path
      d="M35 6
         C35 12, 37 16, 43 22
         C49 28, 53 34, 53 42
         C53 51, 47 57, 39 57
         C34 57, 30 54, 27.5 50.5
         C25 54.5, 20.5 57, 15.5 57
         C7.5 57, 2 51.5, 2 43
         C2 31, 13 23.5, 22 17.5
         C28 13.5, 31.5 10, 35 6 Z"
      fill="url(#leafFill)"
      stroke="#2d511d"
      stroke-width="2.5"
      stroke-linejoin="round"
      stroke-linecap="round"
    />

    <path
      d="M34 8
         C31 21, 28.5 31, 28 49"
      fill="none"
      stroke="#2d511d"
      stroke-width="2.6"
      stroke-linecap="round"
      opacity="0.9"
    />

    <path
      d="M28.2 41
         C24 35.5, 19 33.5, 13.8 31.8"
      fill="none"
      stroke="#2d511d"
      stroke-width="2.2"
      stroke-linecap="round"
      opacity="0.9"
    />

    <path
      d="M28.4 41
         C34 36.2, 39.8 33.8, 45.3 32.5"
      fill="none"
      stroke="#2d511d"
      stroke-width="2.2"
      stroke-linecap="round"
      opacity="0.9"
    />
  </g>
</svg>
